<svg width="40" height="40" viewBox="0 0 40 40" fill="none" xmlns="http://www.w3.org/2000/svg">
  <rect width="40" height="40" rx="10" fill="url(#g)"/>
  <path d="M20 9c-4.2 0-7 2.3-7 6 0 2 .7 4.6 1.8 8 .9 2.7 1.6 5 2.8 5 1 0 1.3-1.4 1.7-3.2.3-1.3.5-2 .7-2s.4.7.7 2c.4 1.8.7 3.2 1.7 3.2 1.2 0 1.9-2.3 2.8-5C27 19.6 27.7 17 27.7 15c0-3.7-2.8-6-7-6-.3 0-.5.1-.7.1-.2 0-.4-.1-.7-.1H20z" fill="#fff"/>
  <defs>
    <linearGradient id="g" x1="0" y1="0" x2="40" y2="40" gradientUnits="userSpaceOnUse">
      <stop stop-color="#2a487e"/>
      <stop offset="1" stop-color="#1e9b8d"/>
    </linearGradient>
  </defs>
</svg>
